<svg width="135" height="208" viewBox="0 0 135 208" fill="none" xmlns="http://www.w3.org/2000/svg">
<path d="M134.682 0V6.35922C134.682 10.4066 134.395 13.5862 134.395 15.6099C134.395 34.3994 133.241 49.4329 130.642 60.4191C127.179 76.6085 119.961 89.6184 109.571 100.025C108.705 100.893 108.705 101.76 109.862 102.916C118.231 113.323 122.851 123.73 122.851 134.136C122.851 147.434 121.118 158.129 118.231 165.935C117.368 167.668 116.211 169.403 114.478 170.562C108.417 174.61 97.4521 179.233 82.443 184.728C81.289 185.016 80.7104 184.44 80.7104 183.572C80.7104 183.284 80.9981 180.681 81.5767 176.054C81.5767 174.898 81.289 174.322 80.9981 174.03C80.4195 173.742 79.2654 174.03 77.8236 174.898C64.835 181.834 58.1984 185.305 58.1984 185.305C56.178 182.413 55.3116 179.234 55.3116 176.054C55.3116 172.007 56.4657 168.827 58.4861 166.515C48.0964 164.2 39.7271 160.444 33.3782 155.817C26.4507 150.326 22.9886 143.963 22.9886 137.028C22.9886 126.621 28.9283 116.349 41.1721 106.672C49.5669 100.041 63.3932 95.8175 78.6932 94.5303C70.6116 92.2184 60.5097 88.171 48.3873 82.3882C39.7303 78.3408 31.0701 71.1138 22.4131 60.7072C12.8898 49.7211 6.82864 39.3145 4.22963 28.9079C2.49695 22.8369 1.3429 15.6099 0.476562 7.22697C11.4449 13.298 19.8141 17.9217 25.5844 21.3927C32.5119 25.4401 40.0148 31.5111 48.0964 38.7381C56.7566 46.5447 63.1055 53.4803 68.0126 59.8427C79.2686 75.1644 87.9256 86.4387 93.9868 94.2421V75.7408C93.9868 45.6769 107.551 20.525 134.682 0ZM75.2278 205.538C75.2981 207.85 74.6492 208.138 73.4951 206.406C72.3411 204.959 70.033 202.647 66.2799 199.755C62.5268 196.864 59.931 195.42 58.777 195.42C57.9106 195.42 55.3148 196.576 51.5618 198.888C47.521 200.911 45.5006 202.359 44.9252 202.359C44.6374 201.779 44.0588 198.599 43.4834 193.396C42.6171 187.905 42.0416 184.434 42.0416 183.278C42.0416 181.83 42.6202 181.83 43.7743 182.41C44.3529 182.989 46.9487 184.434 51.5682 186.457C56.1844 188.481 58.7834 189.637 59.6497 189.637C59.9374 189.637 62.5364 188.481 66.8649 185.881C71.1934 183.569 73.7924 182.122 74.0802 182.122C74.0802 182.41 74.6844 193.252 74.467 189.608C74.4542 189.381 74.6524 191.958 74.9465 197.443C75.1959 202.067 75.1607 203.089 75.2342 205.538H75.2278ZM115.345 182.701C115.345 185.013 114.766 186.46 113.903 187.325C107.554 189.349 101.781 190.793 96.5858 192.528C87.0625 195.128 82.1553 196.864 81.289 196.864C80.7104 196.864 80.4226 196.284 80.4226 195.42C80.4226 193.396 80.7104 191.952 81.5767 191.084C87.0593 189.061 92.2541 187.616 96.8735 186.169C105.821 182.989 111.592 181.254 114.191 181.254C115.057 181.254 115.345 181.834 115.345 182.701ZM52.9875 111.584C48.6782 111.584 45.1873 115.081 45.1873 119.397C45.1873 123.714 48.6782 127.21 52.9875 127.21C57.2969 127.21 60.7878 123.714 60.7878 119.397C60.7878 115.081 57.2937 111.584 52.9875 111.584Z" fill="white"/>
</svg>
