<svg width="79" height="100" viewBox="0 0 79 100" fill="none" xmlns="http://www.w3.org/2000/svg">
<path fill-rule="evenodd" clip-rule="evenodd" d="M44.9609 88.1485C44.9609 88.1485 47.7089 88.1331 49.9041 88.1331C50.9327 88.1638 51.5928 88.2099 52.2683 88.348C53.696 88.6551 54.8013 89.699 54.7706 91.0039C54.7552 92.4776 53.7727 93.7364 52.084 93.8439C53.9569 93.8899 55.1236 95.3176 55.0776 96.8374C55.0469 98.4954 53.7267 99.7696 52.0073 99.831C50.3033 99.8924 44.9763 99.8617 44.9763 99.8617L44.9609 97.3901H45.9588V90.7736H44.9609V88.1485ZM49.4436 97.4054C49.4436 97.4054 50.073 97.4515 50.5182 97.344C51.1629 97.1752 51.3472 96.73 51.3625 96.1927C51.3779 95.7321 51.1937 95.333 50.7024 95.1795C50.2726 95.0413 49.4436 95.0874 49.4436 95.0874V97.4054ZM49.4589 92.7079C49.4589 92.7079 50.3033 92.7232 50.5335 92.6618C51.0401 92.5083 51.3011 92.1245 51.3011 91.664C51.3011 91.3416 51.209 91.0499 50.7331 90.8503C50.5182 90.7582 50.2265 90.7582 49.9809 90.7582C49.7046 90.7429 49.4436 90.7429 49.4436 90.7429L49.4589 92.7079Z" fill="white"/>
<path fill-rule="evenodd" clip-rule="evenodd" d="M55.7383 93.9206C55.7383 90.5586 57.9489 87.826 61.357 87.8414C64.9185 87.8414 66.9756 90.5586 66.9756 93.9206C66.9756 97.2672 64.765 99.9844 61.357 99.9998C58.041 100.015 55.7383 97.2672 55.7383 93.9206ZM61.4491 97.5282C62.5697 97.5435 62.8921 96.1158 62.8921 93.982C62.8921 91.8481 62.5851 90.2362 61.357 90.2362C60.267 90.2362 59.8218 91.8481 59.8218 93.982C59.8218 96.1158 60.313 97.5282 61.4491 97.5282Z" fill="white"/>
<path fill-rule="evenodd" clip-rule="evenodd" d="M0.628906 90.7889V88.1485C0.628906 88.1485 2.82418 88.1331 4.83523 88.1331C5.95589 88.1331 6.93838 88.1638 7.61385 88.2713C9.96263 88.6858 10.8377 90.1442 10.8223 91.9557C10.8223 93.5983 10.0394 95.4404 7.67526 95.7475C7.16866 95.8089 5.49535 95.7628 5.49535 95.7628L5.5107 97.4515H6.72347V99.877H0.644273V97.4208L1.68817 97.4361V90.7889H0.628906ZM5.5107 93.2759C5.5107 93.2759 6.048 93.3066 6.43179 93.2452C6.73882 93.1991 7.18402 92.7846 7.18402 92.0631C7.18402 91.3416 7.07655 90.9732 6.66206 90.835C6.29363 90.7122 5.5107 90.7736 5.5107 90.7736V93.2759Z" fill="white"/>
<path d="M11.7773 90.7582V88.1331H17.7798V90.7736H16.5824L16.567 97.3901H18.3324V95.379H21.1264L21.1111 99.877H11.7773V97.3901L12.8366 97.4054V90.7582H11.7773Z" fill="white"/>
<path fill-rule="evenodd" clip-rule="evenodd" d="M25.9433 88.1331H29.7044L32.3602 97.3747H33.1738V99.877L27.7855 99.8617V97.3747H28.814L28.6298 96.3462H25.9126L25.5441 97.3747H26.7262V99.8617H22.3203V97.3747L23.1646 97.3901L25.9433 88.1331ZM26.4499 93.9053H28.0618L27.4324 90.528L26.4499 93.9053Z" fill="white"/>
<path d="M32.8828 90.7736V88.1331H38.7317L38.7164 90.7736H37.826L39.0848 92.8614L40.2515 90.7736H39.4686V88.1331H43.6903V90.7736H42.9688L40.2208 95.3023V97.3901H41.6332V99.877H35.3391V97.3901H36.3829V95.1334L33.5583 90.7736H32.8828Z" fill="white"/>
<path d="M67.3477 90.7581V88.1177H73.1966V90.7581L72.3676 90.7428L73.5343 92.7385L74.701 90.7581H73.9334V88.1177H78.1551V90.7581L77.3722 90.7428L74.7471 95.0412V97.39H75.9599V99.8769H69.8192V97.39H70.8631L70.8478 95.1794L68.0385 90.7581H67.3477Z" fill="white"/>
<path fill-rule="evenodd" clip-rule="evenodd" d="M63.2287 0C63.2287 0 63.2287 0.890389 63.2287 2.4716C63.2287 4.03745 63.1212 5.28093 63.1212 6.06385C63.1212 13.3865 62.676 19.2201 61.6628 23.5032C60.3119 29.7973 57.5026 34.8633 53.4498 38.9008C53.112 39.2385 53.112 39.5762 53.5572 40.0368C56.8271 44.0742 58.6232 48.127 58.6232 52.1798C58.6232 57.3533 57.9478 61.5136 56.8271 64.5532C56.4894 65.2286 56.0442 65.9041 55.3687 66.3493C53.0046 67.9152 48.7215 69.7266 42.8726 71.8605C42.4274 71.9679 42.2125 71.753 42.2125 71.4153C42.2125 71.2925 42.3199 70.2793 42.5502 68.4832C42.5502 68.038 42.4274 67.8077 42.3199 67.7002C42.0897 67.5774 41.6444 67.7002 41.0764 68.038C36.0258 70.7398 33.4314 72.0908 33.4314 72.0908C32.6485 70.9548 32.3107 69.7266 32.3107 68.4832C32.3107 66.9173 32.7559 65.6738 33.5388 64.7681C29.5014 63.8777 26.2315 62.4193 23.7599 60.6078C21.0581 58.474 19.7071 56.0024 19.7071 53.3005C19.7071 49.2477 22.0252 45.2563 26.7995 41.4952C30.0694 38.9161 35.4578 37.2735 41.4142 36.7669C38.2722 35.8663 34.3371 34.2953 29.6089 32.054C26.2315 30.4779 22.8593 27.6634 19.4922 23.6106C15.7771 19.3429 13.413 15.2901 12.3998 11.2373C11.7243 8.88853 11.2791 6.06385 10.9414 2.80933C15.2091 5.17346 18.479 6.96959 20.7203 8.32053C23.4222 9.88638 26.3543 12.2505 29.5014 15.0598C32.8787 18.0995 35.3503 20.8013 37.2539 23.2729C41.6445 29.2293 45.0218 33.6198 47.3859 36.6594C47.3859 36.552 47.3859 34.065 47.3859 29.4596C47.3859 17.7617 52.6668 7.98279 63.2287 0ZM40.0632 79.9507C40.0939 80.8565 39.8483 80.964 39.3878 80.2885C38.9426 79.7358 38.0368 78.8301 36.5785 77.7094C35.1201 76.5888 34.1069 76.0208 33.6617 76.0208C33.3239 76.0208 32.3107 76.466 30.8523 77.3717C29.2711 78.1546 28.4882 78.7226 28.2579 78.7226C28.1505 78.4924 27.9202 77.2642 27.7053 75.2378C27.3675 73.0886 27.1373 71.753 27.1373 71.2925C27.1373 70.7398 27.3675 70.7398 27.8127 70.9548C28.043 71.185 29.0408 71.753 30.8523 72.536C32.6485 73.3189 33.6617 73.7641 33.9994 73.7641C34.1068 73.7641 35.1201 73.3189 36.8087 72.3057C38.4974 71.4153 39.5106 70.8473 39.618 70.8473C39.618 70.924 39.7562 73.3035 39.7869 73.9023C39.8023 74.2553 39.8637 75.2225 39.9558 76.8037C40.0479 78.5998 40.0325 78.999 40.0632 79.9507ZM39.7869 73.9023C39.7767 73.7794 39.7716 73.7334 39.7716 73.7641C39.7869 74.1172 39.7869 74.1172 39.7869 73.9023ZM55.7064 71.0776C55.7064 71.968 55.4762 72.536 55.1385 72.8737C52.6669 73.6566 50.4102 74.2246 48.3838 74.9001C44.6841 75.9133 42.7651 76.5888 42.4274 76.5888C42.2125 76.5888 42.0897 76.3585 42.0897 76.0208C42.0897 75.2378 42.2125 74.6698 42.5502 74.3321C44.6841 73.5492 46.7105 72.9812 48.5066 72.4132C51.9914 71.185 54.2327 70.5096 55.2459 70.5096C55.5836 70.5096 55.7064 70.7398 55.7064 71.0776ZM31.405 43.3988C29.7163 43.3988 28.3654 44.7651 28.3654 46.4384C28.3654 48.127 29.7163 49.478 31.405 49.478C33.0783 49.478 34.4446 48.127 34.4446 46.4384C34.4446 44.7651 33.0783 43.3988 31.405 43.3988Z" fill="white"/>
</svg>
